<svg width="22" height="18" viewBox="0 0 22 18" fill="none" xmlns="http://www.w3.org/2000/svg">
<path d="M1 5.32494V8.67506C1 8.87266 1.11637 9.05172 1.29693 9.13197L9.29693 12.6875C9.62757 12.8345 10 12.5924 10 12.2306V9.83333C10 9.63148 9.87863 9.44943 9.69231 9.37179L5.10769 7.46154C4.69744 7.2906 4.69744 6.7094 5.10769 6.53846L9.69231 4.62821C9.87863 4.55057 10 4.36852 10 4.16667V1.76938C10 1.40755 9.62757 1.16552 9.29693 1.31248L1.29693 4.86803C1.11637 4.94828 1 5.12734 1 5.32494Z" stroke="#F8FAFC"/>
<path d="M21 12.6751L21 9.32494C21 9.12734 20.8836 8.94828 20.7031 8.86803L12.7031 5.31247C12.3724 5.16552 12 5.40755 12 5.76938L12 8.16667C12 8.36852 12.1214 8.55057 12.3077 8.6282L16.8923 10.5385C17.3026 10.7094 17.3026 11.2906 16.8923 11.4615L12.3077 13.3718C12.1214 13.4494 12 13.6315 12 13.8333L12 16.2306C12 16.5924 12.3724 16.8345 12.7031 16.6875L20.7031 13.132C20.8836 13.0517 21 12.8727 21 12.6751Z" stroke="#F8FAFC"/>
</svg>
