<svg xmlns="http://www.w3.org/2000/svg" xmlns:xlink="http://www.w3.org/1999/xlink" width="162.432" height="43.762" viewBox="0 0 162.432 43.762">
  <defs>
    <linearGradient id="linear-gradient" y1="0.498" x2="1" y2="0.498" gradientUnits="objectBoundingBox">
      <stop offset="0" stop-color="#ee7623"/>
      <stop offset="0.15" stop-color="#f28e1a"/>
      <stop offset="0.38" stop-color="#f8af0f"/>
      <stop offset="0.61" stop-color="#fcc607"/>
      <stop offset="0.82" stop-color="#fed402"/>
      <stop offset="1" stop-color="#ffd900"/>
    </linearGradient>
    <linearGradient id="linear-gradient-2" y1="0.5" x2="1" y2="0.5" gradientUnits="objectBoundingBox">
      <stop offset="0.29" stop-color="#ee7623"/>
      <stop offset="0.44" stop-color="#ef7a22"/>
      <stop offset="0.58" stop-color="#f1851e"/>
      <stop offset="0.72" stop-color="#f49817"/>
      <stop offset="0.85" stop-color="#f8b20e"/>
      <stop offset="0.98" stop-color="#fed402"/>
      <stop offset="1" stop-color="#ffd900"/>
    </linearGradient>
    <linearGradient id="linear-gradient-3" y1="0.5" x2="1.144" y2="0.5" gradientUnits="objectBoundingBox">
      <stop offset="0.11" stop-color="#0082ca"/>
      <stop offset="0.31" stop-color="#008ccf"/>
      <stop offset="0.63" stop-color="#00a6dd"/>
      <stop offset="0.76" stop-color="#00b2e3"/>
    </linearGradient>
    <linearGradient id="linear-gradient-4" x1="-0.003" y1="0.499" x2="1.144" y2="0.499" xlink:href="#linear-gradient-3"/>
  </defs>
  <g id="CTI_Logo_Outlines_final" data-name="CTI Logo Outlines final" transform="translate(-0.006 0.93)">
    <path id="Path_82" data-name="Path 82" d="M13.358,57.1a4,4,0,0,1-.973-.114,4.089,4.089,0,0,1-3.009-4.907,28.083,28.083,0,0,1,54.571,0A4.09,4.09,0,0,1,56,54.013a19.9,19.9,0,0,0-38.673,0A4.089,4.089,0,0,1,13.358,57.1Z" transform="translate(-9.26 -14.307)" fill="url(#linear-gradient)"/>
    <path id="Path_83" data-name="Path 83" d="M52.927,33.744A28.549,28.549,0,0,1,67.451,52.137a4.09,4.09,0,1,1-7.949,1.93A19.921,19.921,0,0,0,28.32,42.773S39.507,26.605,52.927,33.744Z" transform="translate(-12.732 -14.541)" fill="url(#linear-gradient-2)"/>
    <circle id="Ellipse_39" data-name="Ellipse 39" cx="3.77" cy="3.77" r="3.77" transform="translate(18.368 0.802) rotate(-13.28)" fill="url(#linear-gradient-3)"/>
    <path id="Path_84" data-name="Path 84" d="M32.975,51.114a.417.417,0,0,0,.483,0,.425.425,0,0,0,0-.581l-.074-.114a16.724,16.724,0,0,1,13.4-26.75,16.446,16.446,0,0,1,3.77.417h0a.638.638,0,0,0,.638-.376.671.671,0,0,0-.393-.818h0a16.724,16.724,0,0,0-17.82,28.214Z" transform="translate(-12.333 -12.528)" fill="url(#linear-gradient-4)"/>
    <path id="Path_85" data-name="Path 85" d="M87.16,16.737A6.027,6.027,0,0,1,93.3,10.579a6.215,6.215,0,0,1,4.661,1.856l-1.341,1.546a4.76,4.76,0,0,0-3.337-1.48,4.007,4.007,0,0,0-3.934,4.236,4.032,4.032,0,0,0,3.934,4.244A4.661,4.661,0,0,0,96.7,19.428l1.349,1.366a6.158,6.158,0,0,1-4.833,2.11,6,6,0,0,1-6.06-6.166Z" transform="translate(-23.453 -10.65)" fill="#898a8d"/>
    <path id="Path_86" data-name="Path 86" d="M107.4,23.37v-1.1a3.639,3.639,0,0,1-2.911,1.292c-1.7,0-3.2-.973-3.2-2.813,0-1.987,1.554-2.944,3.647-2.944a7.524,7.524,0,0,1,2.453.376v-.172c0-1.243-.818-1.922-2.208-1.922a6.166,6.166,0,0,0-2.568.564l-.564-1.636a7.712,7.712,0,0,1,3.418-.752c2.658,0,3.95,1.4,3.95,3.795V23.37Zm.057-3.762a5.9,5.9,0,0,0-2.061-.36c-1.292,0-2.061.532-2.061,1.431S104.1,22,105.068,22c1.366,0,2.388-.761,2.388-1.889Z" transform="translate(-26.028 -11.322)" fill="#898a8d"/>
    <path id="Path_87" data-name="Path 87" d="M113,14.371h2.061V16.4a3.189,3.189,0,0,1,3.181-2.2v2.184h-.114c-1.807,0-3.067,1.169-3.067,3.549v3.427H113Z" transform="translate(-28.161 -11.31)" fill="#898a8d"/>
    <path id="Path_88" data-name="Path 88" d="M119.8,18.858a4.457,4.457,0,0,1,4.392-4.678c2.862,0,4.3,2.249,4.3,4.833v.581h-6.6a2.511,2.511,0,0,0,2.584,2.282A3.271,3.271,0,0,0,126.93,20.8l1.2,1.071a4.686,4.686,0,0,1-8.333-3.018Zm6.657-.63a2.338,2.338,0,0,0-2.282-2.363,2.453,2.453,0,0,0-2.331,2.363Z" transform="translate(-29.399 -11.307)" fill="#898a8d"/>
    <path id="Path_89" data-name="Path 89" d="M90.538,30.938H86.76V29h9.666v1.938H92.681v9.977H90.538Z" transform="translate(-23.38 -14.008)" fill="#898a8d"/>
    <path id="Path_90" data-name="Path 90" d="M99.08,32.541h2.061v2.028a3.2,3.2,0,0,1,3.189-2.2V34.52h-.123c-1.807,0-3.067,1.169-3.067,3.557V41.5H99.08Z" transform="translate(-25.625 -14.621)" fill="#898a8d"/>
    <path id="Path_91" data-name="Path 91" d="M112.109,41.538v-1.1a3.656,3.656,0,0,1-2.911,1.292c-1.7,0-3.2-.973-3.2-2.813,0-1.987,1.546-2.944,3.639-2.944a7.572,7.572,0,0,1,2.453.376v-.18c0-1.243-.818-1.922-2.216-1.922a6.223,6.223,0,0,0-2.568.564l-.564-1.636a7.753,7.753,0,0,1,3.427-.752c2.65,0,3.95,1.4,3.95,3.8v5.324Zm.049-3.762a5.855,5.855,0,0,0-2.061-.36c-1.292,0-2.061.532-2.061,1.431s.769,1.325,1.742,1.325c1.358,0,2.38-.761,2.38-1.881Z" transform="translate(-26.886 -14.631)" fill="#898a8d"/>
    <path id="Path_92" data-name="Path 92" d="M117.72,32.538h2.053v1.4a3.271,3.271,0,0,1,2.813-1.587c2.028,0,3.2,1.366,3.2,3.459v5.725h-2.061V36.423c0-1.4-.7-2.2-1.922-2.2a2,2,0,0,0-2.028,2.233v5.07H117.72Z" transform="translate(-29.021 -14.618)" fill="#898a8d"/>
    <path id="Path_93" data-name="Path 93" d="M128.9,40.355l.916-1.39a5.078,5.078,0,0,0,2.944,1.1c.883,0,1.4-.376,1.4-1.006s-.867-.9-1.856-1.186l-.155-.057c-1.325-.393-2.805-.932-2.805-2.691s1.407-2.74,3.2-2.74a6.256,6.256,0,0,1,3.271,1.022l-.818,1.464a5.267,5.267,0,0,0-2.535-.818c-.818,0-1.259.376-1.259.94s.9.85,1.873,1.161l.164.057c1.317.409,2.8,1,2.8,2.65,0,1.889-1.464,2.83-3.337,2.83a6.272,6.272,0,0,1-3.795-1.341Z" transform="translate(-31.059 -14.625)" fill="#898a8d"/>
    <path id="Path_94" data-name="Path 94" d="M139,28.5h2.216v1.955H139Zm.09,3.337h2.053v9h-2.061Z" transform="translate(-32.899 -13.917)" fill="#898a8d"/>
    <path id="Path_95" data-name="Path 95" d="M144.337,38.535V33.808H143.2V32.033h1.137V29.58H146.4v2.453h2.453v1.775H146.4v4.408a.981.981,0,0,0,1.1,1.12,2.87,2.87,0,0,0,1.276-.3v1.685a3.615,3.615,0,0,1-1.848.458C145.408,41.176,144.337,40.555,144.337,38.535Z" transform="translate(-33.664 -14.113)" fill="#898a8d"/>
    <path id="Path_96" data-name="Path 96" d="M151.82,28.5h2.208v1.955H151.82Zm.082,3.337h2.061v9H151.9Z" transform="translate(-35.235 -13.917)" fill="#898a8d"/>
    <path id="Path_97" data-name="Path 97" d="M155.88,37.007a4.792,4.792,0,1,1,4.76,4.678,4.694,4.694,0,0,1-4.76-4.678Zm7.515,0a2.772,2.772,0,0,0-2.756-2.895,2.707,2.707,0,0,0-2.707,2.895,2.78,2.78,0,0,0,2.74,2.887,2.715,2.715,0,0,0,2.723-2.887Z" transform="translate(-35.974 -14.572)" fill="#898a8d"/>
    <path id="Path_98" data-name="Path 98" d="M168.91,32.538h2.061v1.4a3.222,3.222,0,0,1,2.8-1.587c2.028,0,3.2,1.366,3.2,3.459v5.725h-2.061V36.423c0-1.4-.7-2.2-1.922-2.2a2,2,0,0,0-2.02,2.233v5.07H168.91Z" transform="translate(-38.349 -14.618)" fill="#898a8d"/>
    <path id="Path_99" data-name="Path 99" d="M180.09,40.355l.916-1.39a5.078,5.078,0,0,0,2.944,1.1c.883,0,1.4-.376,1.4-1.006s-.867-.9-1.856-1.186l-.155-.057c-1.325-.393-2.8-.932-2.8-2.691s1.407-2.74,3.2-2.74A6.256,6.256,0,0,1,187,33.412l-.818,1.464a5.266,5.266,0,0,0-2.535-.818c-.818,0-1.259.376-1.259.94s.9.85,1.889,1.161l.164.057c1.317.409,2.8,1,2.8,2.65,0,1.889-1.464,2.83-3.337,2.83A6.272,6.272,0,0,1,180.09,40.355Z" transform="translate(-40.386 -14.625)" fill="#898a8d"/>
    <path id="Path_100" data-name="Path 100" d="M88,47.17h2.094V59.085H88Z" transform="translate(-23.606 -17.318)" fill="#898a8d"/>
    <path id="Path_101" data-name="Path 101" d="M92.44,50.708h2.094v1.4a3.271,3.271,0,0,1,2.813-1.587c2.02,0,3.2,1.366,3.2,3.459V59.7H98.451V54.593c0-1.4-.7-2.2-1.922-2.2a2,2,0,0,0-2,2.233V59.7H92.44Z" transform="translate(-24.415 -17.929)" fill="#898a8d"/>
    <path id="Path_102" data-name="Path 102" d="M104.367,56.7V51.978H103.23V50.2h1.137V47.75h2.061V50.2h2.453v1.775h-2.453v4.408a.981.981,0,0,0,1.1,1.12,2.74,2.74,0,0,0,1.276-.3v1.685a3.615,3.615,0,0,1-1.848.458C105.438,59.346,104.367,58.684,104.367,56.7Z" transform="translate(-26.381 -17.424)" fill="#898a8d"/>
    <path id="Path_103" data-name="Path 103" d="M110.886,55.206a4.465,4.465,0,0,1,4.392-4.686c2.862,0,4.3,2.249,4.3,4.833v.581h-6.6a2.511,2.511,0,0,0,2.584,2.282,3.271,3.271,0,0,0,2.453-1.071l1.137,1.071a4.686,4.686,0,0,1-8.284-3.009Zm6.657-.63a2.34,2.34,0,0,0-2.282-2.372,2.453,2.453,0,0,0-2.331,2.372Z" transform="translate(-27.773 -17.929)" fill="#898a8d"/>
    <path id="Path_104" data-name="Path 104" d="M123.23,50.711h2.061v2.028a3.2,3.2,0,0,1,3.181-2.2v2.183h-.114c-1.807,0-3.067,1.169-3.067,3.557V59.7H123.23Z" transform="translate(-30.025 -17.932)" fill="#898a8d"/>
    <path id="Path_105" data-name="Path 105" d="M130.37,50.75h2.216l2.388,6.608,2.453-6.608h2.159l-3.672,9.061h-1.856Z" transform="translate(-31.326 -17.971)" fill="#898a8d"/>
    <path id="Path_106" data-name="Path 106" d="M141.739,55.206a4.465,4.465,0,0,1,4.392-4.686c2.862,0,4.31,2.249,4.31,4.833v.581h-6.6a2.511,2.511,0,0,0,2.584,2.282,3.271,3.271,0,0,0,2.453-1.071l1.21,1.071a4.547,4.547,0,0,1-3.68,1.685,4.49,4.49,0,0,1-4.67-4.694Zm6.657-.63a2.34,2.34,0,0,0-2.282-2.372,2.453,2.453,0,0,0-2.331,2.372Z" transform="translate(-33.397 -17.929)" fill="#898a8d"/>
    <path id="Path_107" data-name="Path 107" d="M153.668,50.708h2.061v1.4a3.222,3.222,0,0,1,2.8-1.587c2.028,0,3.2,1.366,3.2,3.459V59.7h-2.069V54.593c0-1.4-.7-2.2-1.922-2.2a2,2,0,0,0-2.02,2.233V59.7H153.66Z" transform="translate(-35.57 -17.929)" fill="#898a8d"/>
    <path id="Path_108" data-name="Path 108" d="M166.007,56.7V51.978H164.87V50.2h1.137V47.75h2.061V50.2h2.453v1.775h-2.453v4.408a.981.981,0,0,0,1.1,1.12,2.74,2.74,0,0,0,1.276-.3v1.685a3.615,3.615,0,0,1-1.848.458C167.078,59.346,166.007,58.684,166.007,56.7Z" transform="translate(-37.613 -17.424)" fill="#898a8d"/>
    <path id="Path_109" data-name="Path 109" d="M173.49,46.67H175.7v1.963H173.49Zm.082,3.337h2.061v9h-2.061Z" transform="translate(-39.183 -17.227)" fill="#898a8d"/>
    <path id="Path_110" data-name="Path 110" d="M177.55,55.179a4.792,4.792,0,1,1,4.76,4.686,4.653,4.653,0,0,1-4.76-4.686Zm7.515,0a2.772,2.772,0,0,0-2.756-2.895,2.707,2.707,0,0,0-2.707,2.895,2.789,2.789,0,0,0,2.74,2.895,2.723,2.723,0,0,0,2.723-2.895Z" transform="translate(-39.923 -17.885)" fill="#898a8d"/>
    <path id="Path_111" data-name="Path 111" d="M190.58,50.708h2.061v1.4a3.222,3.222,0,0,1,2.8-1.587c2.028,0,3.2,1.366,3.2,3.459V59.7h-2.061V54.593c0-1.4-.7-2.2-1.922-2.2a2,2,0,0,0-2.02,2.233V59.7H190.58Z" transform="translate(-42.297 -17.929)" fill="#898a8d"/>
    <path id="Path_112" data-name="Path 112" d="M201.53,50.2a2.609,2.609,0,1,1,.747,1.86,2.6,2.6,0,0,1-.747-1.86Zm4.907,0a2.265,2.265,0,0,0-2.29-2.3,2.29,2.29,0,0,0-2.306,2.323,2.265,2.265,0,0,0,2.29,2.3,2.29,2.29,0,0,0,2.3-2.331Zm-3.377-1.447h1.227a1.2,1.2,0,0,1,.818.3.924.924,0,0,1-.368,1.472l.679.99H204.7l-.605-.891h-.466v.891h-.613Zm1.218,1.349c.311,0,.474-.164.474-.409s-.18-.4-.482-.4h-.6v.818Z" transform="translate(-44.292 -17.404)" fill="#898a8d"/>
  </g>
</svg>
