<svg width="120" height="120" viewBox="0 0 120 120" fill="none" xmlns="http://www.w3.org/2000/svg">
<path d="M42 91C42 78.2975 31.7026 68 19 68L19 114C31.7025 114 42 103.703 42 91Z" fill="#7892A5"/>
<path d="M42 55C42 42.2975 31.7026 32 19 32L19 78C31.7025 78 42 67.7026 42 55Z" fill="#61839C"/>
<path d="M42 29C42 16.2975 31.7026 6 19 6L19 52C31.7025 52 42 41.7026 42 29Z" fill="#4A7494"/>
<path d="M100 60C100 30.1766 75.8234 6.00001 46 6L46 114C75.8234 114 100 89.8234 100 60Z" fill="#4A7494"/>
</svg>
