<?xml version="1.0" standalone="no"?>
<!DOCTYPE svg PUBLIC "-//W3C//DTD SVG 20010904//EN"
 "http://www.w3.org/TR/2001/REC-SVG-20010904/DTD/svg10.dtd">
<svg version="1.0" xmlns="http://www.w3.org/2000/svg"
 width="700.000000pt" height="700.000000pt" viewBox="0 0 700.000000 700.000000"
 preserveAspectRatio="xMidYMid meet">
<metadata>
Created by potrace 1.14, written by Peter Selinger 2001-2017
</metadata>
<g transform="translate(0.000000,700.000000) scale(0.100000,-0.100000)"
fill="#000000" stroke="none">
<path d="M3035 5513 c-60 -15 -2232 -959 -2262 -983 -45 -37 -81 -96 -93 -156
-7 -35 -10 -208 -8 -521 l3 -468 27 -51 c15 -29 44 -66 64 -82 24 -20 431
-201 1143 -508 1216 -525 1167 -507 1280 -469 61 20 125 79 154 143 21 45 22
60 22 402 0 195 -3 371 -8 391 -10 50 -60 122 -105 151 -20 13 -84 44 -142 67
-58 23 -298 121 -535 216 -670 271 -604 242 -575 253 187 73 1187 480 1220
497 58 30 93 67 122 130 23 49 23 55 23 420 0 369 0 370 -24 418 -55 111 -192
178 -306 150z m65 -572 l0 -309 -212 -85 c-624 -251 -1026 -416 -1053 -430
-42 -22 -90 -71 -111 -115 -14 -27 -19 -59 -19 -118 0 -72 3 -86 30 -129 17
-27 48 -62 70 -77 22 -15 308 -136 635 -268 327 -132 610 -247 628 -255 l32
-15 0 -305 c0 -168 -3 -305 -7 -305 -4 0 -490 208 -1080 463 l-1073 462 2 434
3 433 1070 463 c589 255 1073 463 1078 464 4 1 7 -138 7 -308z"/>
<path d="M3782 4444 c-58 -29 -96 -69 -126 -134 -20 -43 -21 -61 -21 -415 0
-354 1 -372 21 -415 26 -57 73 -104 133 -134 25 -12 313 -130 638 -261 326
-132 589 -242 585 -246 -4 -3 -285 -118 -626 -255 -680 -274 -681 -274 -727
-376 -24 -53 -24 -54 -24 -423 l0 -370 27 -51 c54 -103 164 -164 270 -150 33
5 405 160 1101 460 579 250 1081 467 1117 483 74 34 140 99 161 159 11 31 14
138 14 534 l0 495 -24 45 c-30 58 -67 97 -114 122 -42 21 -2036 883 -2152 929
-95 38 -180 39 -253 3z m1216 -710 l1062 -458 -2 -434 -3 -435 -330 -142
c-181 -78 -656 -282 -1055 -454 -399 -172 -735 -317 -747 -322 l-23 -9 0 309
0 308 163 66 c89 36 365 148 612 248 248 100 466 190 486 200 49 24 113 99
127 147 38 127 -15 260 -127 316 -25 13 -233 99 -461 191 -228 92 -500 202
-605 245 l-190 76 -3 308 c-2 291 -1 308 15 304 10 -3 496 -211 1081 -464z"/>
</g>
</svg>
